<?xml version="1.0" standalone="no"?>
<!DOCTYPE svg PUBLIC "-//W3C//DTD SVG 20010904//EN"
 "http://www.w3.org/TR/2001/REC-SVG-20010904/DTD/svg10.dtd">
<svg version="1.0" xmlns="http://www.w3.org/2000/svg"
 width="50.000000pt" height="50.000000pt" viewBox="0 0 50.000000 50.000000"
 preserveAspectRatio="xMidYMid meet">

<g transform="translate(0.000000,50.000000) scale(0.100000,-0.100000)"
fill="#000000" stroke="none">
<path d="M183 426 c-60 -19 -99 -51 -130 -104 -23 -39 -28 -59 -28 -112 1 -43
7 -76 18 -98 16 -28 23 -33 50 -30 36 3 53 38 19 38 -26 0 -39 17 -47 61 -16
87 49 185 138 208 99 24 199 -34 226 -131 20 -71 0 -138 -41 -138 -34 0 -17
-35 19 -38 27 -3 34 2 48 27 37 73 28 166 -24 238 -52 71 -163 107 -248 79z"/>
<path d="M232 353 c2 -10 10 -18 18 -18 8 0 16 8 18 18 2 12 -3 17 -18 17 -15
0 -20 -5 -18 -17z"/>
<path d="M162 333 c4 -21 33 -25 33 -3 0 8 -8 16 -18 18 -14 3 -18 -1 -15 -15z"/>
<path d="M302 333 c2 -10 10 -18 18 -18 8 0 16 8 18 18 2 12 -3 17 -18 17 -15
0 -20 -5 -18 -17z"/>
<path d="M107 294 c-9 -9 4 -34 18 -34 14 0 27 25 18 34 -4 3 -12 6 -18 6 -6
0 -14 -3 -18 -6z"/>
<path d="M290 263 c-63 -17 -80 -28 -80 -53 0 -25 26 -43 53 -36 26 6 116 107
95 105 -7 0 -38 -8 -68 -16z"/>
<path d="M85 220 c-8 -14 3 -30 21 -30 8 0 14 9 14 20 0 21 -24 28 -35 10z"/>
<path d="M380 210 c0 -15 5 -20 18 -18 9 2 17 10 17 18 0 8 -8 16 -17 18 -13
2 -18 -3 -18 -18z"/>
<path d="M190 100 c0 -18 7 -20 60 -20 53 0 60 2 60 20 0 18 -7 20 -60 20 -53
0 -60 -2 -60 -20z"/>
</g>
</svg>
