<?xml version="1.0" standalone="no"?>
<!DOCTYPE svg PUBLIC "-//W3C//DTD SVG 20010904//EN"
 "http://www.w3.org/TR/2001/REC-SVG-20010904/DTD/svg10.dtd">
<svg version="1.0" xmlns="http://www.w3.org/2000/svg"
 width="50.000000pt" height="50.000000pt" viewBox="0 0 50.000000 50.000000"
 preserveAspectRatio="xMidYMid meet">

<g transform="translate(0.000000,50.000000) scale(0.100000,-0.100000)"
fill="#000000" stroke="none">
<path d="M154 410 c-30 -12 -54 -49 -54 -83 0 -34 48 -87 79 -87 94 0 132 123
50 165 -31 17 -44 18 -75 5z m64 -36 c47 -32 13 -114 -42 -100 -50 12 -59 87
-13 106 30 12 30 12 55 -6z"/>
<path d="M300 407 c0 -8 13 -20 30 -25 53 -19 49 -94 -5 -108 -14 -3 -25 -12
-25 -20 0 -24 40 -15 71 15 36 36 38 79 7 115 -28 31 -78 46 -78 23z"/>
<path d="M84 201 c-44 -20 -54 -36 -54 -82 0 -38 13 -40 174 -37 108 3 131 6
140 20 15 24 -2 66 -37 92 -41 30 -166 34 -223 7z m185 -22 c30 -11 51 -35 51
-58 0 -7 -45 -11 -131 -11 -130 0 -130 0 -127 23 7 47 127 74 207 46z"/>
<path d="M340 206 c0 -8 12 -17 28 -21 42 -10 72 -33 72 -55 0 -17 -7 -20 -41
-20 -47 0 -51 -23 -5 -28 53 -6 76 5 76 39 0 45 -15 65 -60 83 -50 20 -70 20
-70 2z"/>
</g>
</svg>
