<?xml version="1.0" standalone="no"?>
<!DOCTYPE svg PUBLIC "-//W3C//DTD SVG 20010904//EN"
 "http://www.w3.org/TR/2001/REC-SVG-20010904/DTD/svg10.dtd">
<svg version="1.0" xmlns="http://www.w3.org/2000/svg"
 width="50.000000pt" height="50.000000pt" viewBox="0 0 50.000000 50.000000"
 preserveAspectRatio="xMidYMid meet">

<g transform="translate(0.000000,50.000000) scale(0.100000,-0.100000)"
fill="#000000" stroke="none">
<path d="M190 450 c0 -25 -27 -37 -50 -22 -25 15 -83 -45 -67 -69 14 -22 2
-49 -23 -49 -17 0 -20 -6 -20 -40 0 -34 4 -42 25 -50 26 -10 33 -38 15 -56 -7
-7 0 -20 20 -39 25 -23 34 -27 48 -19 23 15 41 7 52 -22 14 -35 76 -35 90 0
11 29 29 37 52 22 26 -16 78 36 62 62 -15 23 -7 41 22 52 19 8 24 17 24 45 0
28 -5 37 -24 45 -29 11 -37 29 -22 52 8 14 4 23 -19 48 -19 20 -32 27 -39 20
-18 -18 -46 -11 -56 15 -8 21 -16 25 -50 25 -34 0 -40 -3 -40 -20z m60 -25 c0
-21 69 -48 85 -35 16 13 30 -4 21 -25 -8 -21 22 -85 39 -85 8 0 15 -7 15 -15
0 -8 -7 -15 -15 -15 -22 0 -47 -55 -39 -86 6 -25 5 -26 -20 -20 -31 8 -86 -17
-86 -39 0 -8 -7 -15 -15 -15 -8 0 -15 7 -15 15 0 16 -67 48 -82 39 -5 -3 -16
-3 -25 0 -11 5 -13 9 -4 20 14 17 -13 86 -34 86 -8 0 -15 7 -15 15 0 8 7 15
15 15 20 0 49 69 35 85 -13 16 9 38 25 25 16 -14 85 15 85 35 0 8 7 15 15 15
8 0 15 -7 15 -15z"/>
<path d="M180 320 c-28 -28 -26 -81 3 -108 49 -46 127 -12 127 54 0 63 -86 98
-130 54z m88 -22 c15 -15 15 -51 0 -66 -15 -15 -51 -15 -66 0 -15 15 -15 51 0
66 7 7 21 12 33 12 12 0 26 -5 33 -12z"/>
</g>
</svg>
