<?xml version="1.0" standalone="no"?>
<!DOCTYPE svg PUBLIC "-//W3C//DTD SVG 20010904//EN"
 "http://www.w3.org/TR/2001/REC-SVG-20010904/DTD/svg10.dtd">
<svg version="1.0" xmlns="http://www.w3.org/2000/svg"
 width="50.000000pt" height="50.000000pt" viewBox="0 0 50.000000 50.000000"
 preserveAspectRatio="xMidYMid meet">

<g transform="translate(0.000000,50.000000) scale(0.100000,-0.100000)"
fill="#000000" stroke="none">
<path d="M180 447 c-52 -17 -114 -84 -129 -140 -43 -152 97 -298 246 -259 160
43 214 232 99 347 -60 59 -135 78 -216 52z m151 -53 c63 -32 98 -114 78 -186
-32 -122 -186 -163 -275 -74 -134 134 28 348 197 260z"/>
<path d="M192 347 c-12 -13 -22 -31 -22 -40 0 -24 32 -21 48 3 14 22 42 26 60
8 19 -19 14 -38 -18 -75 -34 -38 -38 -53 -12 -53 26 0 82 74 82 108 0 65 -92
98 -138 49z"/>
<path d="M230 145 c0 -18 5 -25 20 -25 15 0 20 7 20 25 0 18 -5 25 -20 25 -15
0 -20 -7 -20 -25z"/>
</g>
</svg>
