<?xml version="1.0" standalone="no"?>
<!DOCTYPE svg PUBLIC "-//W3C//DTD SVG 20010904//EN"
 "http://www.w3.org/TR/2001/REC-SVG-20010904/DTD/svg10.dtd">
<svg version="1.0" xmlns="http://www.w3.org/2000/svg"
 width="50.000000pt" height="50.000000pt" viewBox="0 0 50.000000 50.000000"
 preserveAspectRatio="xMidYMid meet">

<g transform="translate(0.000000,50.000000) scale(0.100000,-0.100000)"
fill="#000000" stroke="none">
<path d="M56 444 c-14 -14 -16 -39 -14 -167 3 -134 5 -152 20 -155 16 -3 18
11 20 145 l3 148 148 3 c134 2 148 4 145 20 -3 15 -21 17 -155 20 -128 2 -153
0 -167 -14z"/>
<path d="M129 343 c-15 -41 -8 -266 10 -286 20 -24 282 -25 305 -1 13 12 16
41 16 153 0 93 -4 141 -12 149 -8 8 -58 12 -160 12 l-148 0 -11 -27z m289
-135 l-3 -123 -122 -3 -123 -3 0 126 0 125 125 0 126 0 -3 -122z"/>
</g>
</svg>
