<?xml version="1.0" standalone="no"?>
<!DOCTYPE svg PUBLIC "-//W3C//DTD SVG 20010904//EN"
 "http://www.w3.org/TR/2001/REC-SVG-20010904/DTD/svg10.dtd">
<svg version="1.0" xmlns="http://www.w3.org/2000/svg"
 width="50.000000pt" height="50.000000pt" viewBox="0 0 50.000000 50.000000"
 preserveAspectRatio="xMidYMid meet">

<g transform="translate(0.000000,50.000000) scale(0.100000,-0.100000)"
fill="#000000" stroke="none">
<path d="M304 431 c-36 -16 -84 -79 -84 -112 0 -39 21 -34 32 7 24 93 151 105
151 14 0 -37 -35 -77 -77 -88 -41 -11 -46 -32 -6 -32 22 0 42 11 73 39 36 34
42 45 42 80 0 67 -71 117 -131 92z"/>
<path d="M235 260 c-47 -47 -57 -62 -47 -72 10 -10 25 0 72 47 57 56 67 74 44
82 -5 2 -36 -24 -69 -57z"/>
<path d="M107 241 c-36 -34 -42 -45 -42 -80 0 -57 39 -96 96 -96 35 0 46 6 80
42 28 31 39 51 39 73 0 40 -21 35 -32 -6 -11 -42 -51 -77 -88 -77 -91 0 -79
127 14 151 41 11 46 32 6 32 -22 0 -42 -11 -73 -39z"/>
</g>
</svg>
