<?xml version="1.0" standalone="no"?>
<!DOCTYPE svg PUBLIC "-//W3C//DTD SVG 20010904//EN"
 "http://www.w3.org/TR/2001/REC-SVG-20010904/DTD/svg10.dtd">
<svg version="1.0" xmlns="http://www.w3.org/2000/svg"
 width="50.000000pt" height="50.000000pt" viewBox="0 0 50.000000 50.000000"
 preserveAspectRatio="xMidYMid meet">

<g transform="translate(0.000000,50.000000) scale(0.100000,-0.100000)"
fill="#000000" stroke="none">
<path d="M312 439 c-34 -13 -258 -235 -272 -269 -24 -58 34 -129 93 -115 27 7
217 194 217 214 0 15 -46 61 -61 61 -17 0 -175 -158 -166 -166 4 -4 40 24 80
64 74 74 95 84 117 56 12 -13 0 -28 -81 -110 -51 -52 -102 -97 -112 -100 -22
-7 -63 19 -72 45 -3 11 1 33 9 48 21 40 227 240 260 253 71 27 149 -56 116
-122 -7 -13 -49 -60 -93 -105 -45 -45 -77 -86 -73 -90 4 -4 47 33 96 83 66 68
90 101 95 127 9 44 -15 91 -58 117 -35 22 -59 24 -95 9z"/>
</g>
</svg>
