<?xml version="1.0" standalone="no"?>
<!DOCTYPE svg PUBLIC "-//W3C//DTD SVG 20010904//EN"
 "http://www.w3.org/TR/2001/REC-SVG-20010904/DTD/svg10.dtd">
<svg version="1.0" xmlns="http://www.w3.org/2000/svg"
 width="50.000000pt" height="50.000000pt" viewBox="0 0 50.000000 50.000000"
 preserveAspectRatio="xMidYMid meet">

<g transform="translate(0.000000,50.000000) scale(0.100000,-0.100000)"
fill="#000000" stroke="none">
<path d="M110 412 c0 -15 -5 -33 -10 -38 -7 -7 -10 -67 -8 -160 l3 -149 155 0
155 0 3 149 c2 93 -1 153 -8 160 -5 5 -10 23 -10 38 l0 28 -140 0 -140 0 0
-28z m250 -17 c0 -12 -19 -15 -110 -15 -91 0 -110 3 -110 15 0 12 19 15 110
15 91 0 110 -3 110 -15z m10 -180 l0 -125 -120 0 -120 0 0 125 0 125 120 0
120 0 0 -125z"/>
<path d="M190 265 l0 -35 60 0 60 0 0 35 c0 24 -5 35 -15 35 -8 0 -15 -7 -15
-15 0 -10 -10 -15 -30 -15 -20 0 -30 5 -30 15 0 8 -7 15 -15 15 -10 0 -15 -11
-15 -35z"/>
</g>
</svg>
